# Blender v2.82 (sub 7) OBJ File: 'untitled.blend'
# www.blender.org
mtllib pillar.mtl
o Cube
v 0.051577 3.968305 -0.481107
v 0.083073 -0.078424 -0.309512
v 0.240166 3.579412 0.254464
v 0.125962 -0.082659 0.277200
v -0.490167 3.968305 -0.333383
v -0.349543 -0.191371 -0.291003
v -0.490167 3.968305 0.190335
v -0.390769 -0.114082 0.249277
v 0.053378 1.946887 -0.462818
v -0.397717 1.919387 0.358845
v 0.062028 1.938223 0.217486
v -0.498091 1.906693 -0.509369
v -0.490167 2.943846 0.358845
v 0.186665 3.008297 -0.411825
v 0.240166 3.149823 0.301373
v -0.384336 2.910891 -0.390598
vt 0.625000 0.500000
vt 0.875000 0.500000
vt 0.875000 0.750000
vt 0.625000 0.750000
vt 0.562500 0.750000
vt 0.625000 1.000000
vt 0.562500 1.000000
vt 0.562500 0.000000
vt 0.625000 0.000000
vt 0.625000 0.250000
vt 0.562500 0.250000
vt 0.125000 0.500000
vt 0.375000 0.500000
vt 0.375000 0.750000
vt 0.125000 0.750000
vt 0.562500 0.500000
vt 0.375000 0.250000
vt 0.500000 0.250000
vt 0.500000 0.500000
vt 0.500000 0.750000
vt 0.375000 0.000000
vt 0.500000 0.000000
vt 0.500000 1.000000
vt 0.375000 1.000000
vn 0.2982 0.9237 0.2406
vn 0.0138 0.1465 0.9891
vn -0.9952 -0.0549 -0.0813
vn 0.1494 -0.9867 0.0637
vn 0.9851 0.0832 -0.1504
vn -0.1481 -0.0236 -0.9887
vn 0.0420 -0.0879 -0.9952
vn 0.9990 0.0210 -0.0404
vn -0.9984 -0.0364 0.0443
vn 0.1159 -0.0102 0.9932
vn 0.0126 0.0804 -0.9967
vn 0.9905 -0.1338 -0.0314
vn -0.9999 0.0107 -0.0037
vn 0.1726 -0.0435 0.9840
usemtl Material
s off
f 1/1/1 5/2/1 7/3/1 3/4/1
f 15/5/2 3/4/2 7/6/2 13/7/2
f 13/8/3 7/9/3 5/10/3 16/11/3
f 6/12/4 2/13/4 4/14/4 8/15/4
f 14/16/5 1/1/5 3/4/5 15/5/5
f 16/11/6 5/10/6 1/1/6 14/16/6
f 6/17/7 12/18/7 9/19/7 2/13/7
f 2/13/8 9/19/8 11/20/8 4/14/8
f 8/21/9 10/22/9 12/18/9 6/17/9
f 4/14/10 11/20/10 10/23/10 8/24/10
f 12/18/11 16/11/11 14/16/11 9/19/11
f 9/19/12 14/16/12 15/5/12 11/20/12
f 10/22/13 13/8/13 16/11/13 12/18/13
f 11/20/14 15/5/14 13/7/14 10/23/14
